<?xml version="1.0" encoding="UTF-8" standalone="no"?>
<!DOCTYPE svg PUBLIC "-//W3C//DTD SVG 1.1//EN" "http://www.w3.org/Graphics/SVG/1.1/DTD/svg11.dtd">
<svg width="100%" height="100%" viewBox="0 0 2048 2048" version="1.1" xmlns="http://www.w3.org/2000/svg" xmlns:xlink="http://www.w3.org/1999/xlink" xml:space="preserve" xmlns:serif="http://www.serif.com/" style="fill-rule:evenodd;clip-rule:evenodd;stroke-linejoin:round;stroke-miterlimit:2;">
    <g id="Backup">
    </g>
    <g id="Artboard1" transform="matrix(1.28909,0,0,1.12173,-2771.6,-7.47035)">
        <rect x="2150.04" y="6.66" width="1588.71" height="1825.75" style="fill:none;"/>
        <g transform="matrix(0.832927,0,0,0.9572,2088.01,-62.2606)">
            <g id="Logo_2">
                <g>
                    <g>
                        <g transform="matrix(1.04466,0,0,1.10362,6.15184,-224.239)">
                            <path d="M1013.89,1756.13L1013.89,510.398C1359.32,529.787 1633.52,801.453 1633.52,1133.26C1633.52,1465.07 1359.32,1736.74 1013.89,1756.13ZM1348.44,1133.26C1348.44,1133.26 1433.57,1190.83 1470.06,1190.83C1503.62,1190.83 1530.87,1165.03 1530.87,1133.26C1530.87,1101.49 1503.62,1075.7 1470.06,1075.7C1433.57,1075.7 1348.44,1133.26 1348.44,1133.26ZM1174.32,841.282C1174.32,841.282 1269.55,800.273 1287.79,770.362C1304.57,742.849 1294.6,707.615 1265.53,691.73C1236.47,675.845 1199.24,685.286 1182.46,712.799C1164.22,742.71 1174.32,841.282 1174.32,841.282ZM1287.41,1326.51C1287.41,1326.51 1330.74,1416.65 1362.34,1433.92C1391.4,1449.81 1428.62,1440.36 1445.41,1412.85C1462.19,1385.34 1452.21,1350.1 1423.15,1334.22C1391.55,1316.95 1287.41,1326.51 1287.41,1326.51ZM1174.32,1426.63C1174.32,1426.63 1164.22,1525.2 1182.46,1555.11C1199.24,1582.63 1236.47,1592.07 1265.53,1576.18C1294.6,1560.3 1304.57,1525.06 1287.79,1497.55C1269.55,1467.64 1174.32,1426.63 1174.32,1426.63ZM1287.41,944.872C1287.41,944.872 1391.55,954.429 1423.15,937.16C1452.21,921.275 1462.19,886.041 1445.41,858.528C1428.62,831.014 1391.4,821.573 1362.34,837.458C1330.74,854.727 1287.41,944.872 1287.41,944.872Z" style="fill:rgb(216,49,28);"/>
                        </g>
                        <g transform="matrix(1.21361,0,0,1.28211,-158.466,-428.967)">
                            <path d="M1008.12,539.387L1008.12,480.813C1373.32,497.511 1664.42,783.462 1664.42,1133.26C1664.42,1483.06 1373.32,1769.01 1008.12,1785.71L1008.12,1727.14C1339.2,1710.5 1602.62,1450.77 1602.62,1133.26C1602.62,815.754 1339.2,556.025 1008.12,539.387Z" style="fill:rgb(79,128,0);"/>
                        </g>
                    </g>
                    <g transform="matrix(1.27203,0,0,1.34382,-206.059,-496.019)">
                        <path d="M501.95,1568.29C386.371,1455.86 315.146,1302.37 315.146,1133.26C315.146,964.153 386.371,810.666 501.95,698.237L518.064,722.421L435.665,846.085C430.258,854.201 430.258,864.535 435.665,872.651L518.064,996.315L435.665,1119.98C430.258,1128.1 430.258,1138.43 435.665,1146.55L518.064,1270.21L435.665,1393.87C430.258,1401.99 430.258,1412.33 435.665,1420.44L518.064,1544.11L501.95,1568.29ZM540.878,663.31C565.132,643.245 590.952,624.834 618.139,608.263L669.317,685.071L578.623,821.185C573.215,829.301 573.215,839.636 578.623,847.752L669.317,983.866L578.623,1119.98C573.215,1128.1 573.215,1138.43 578.623,1146.55L669.317,1282.66L578.623,1418.77C573.215,1426.89 573.215,1437.22 578.623,1445.34L669.317,1581.45L618.139,1658.26C590.952,1641.69 565.132,1623.28 540.878,1603.22L571.413,1557.39C576.821,1549.27 576.821,1538.94 571.413,1530.82L489.014,1407.16L571.413,1283.49C576.821,1275.38 576.821,1265.04 571.413,1256.93L489.014,1133.26L571.413,1009.6C576.821,1001.48 576.821,991.148 571.413,983.032L489.014,859.368L571.413,735.704C576.821,727.588 576.821,717.253 571.413,709.138L540.878,663.31ZM663.494,582.982C695.29,566.842 728.644,553.099 763.285,542.01L833.722,647.722L734.733,796.286C729.325,804.402 729.325,814.736 734.733,822.852L833.722,971.416L734.733,1119.98C729.325,1128.1 729.325,1138.43 734.733,1146.55L833.722,1295.11L734.733,1443.67C729.325,1451.79 729.325,1462.12 734.733,1470.24L833.722,1618.8L763.285,1724.52C728.644,1713.43 695.29,1699.68 663.494,1683.54L722.666,1594.74C728.074,1586.62 728.074,1576.29 722.666,1568.17L631.972,1432.06L722.666,1295.94C728.074,1287.83 728.074,1277.49 722.666,1269.38L631.972,1133.26L722.666,997.149C728.074,989.033 728.074,978.698 722.666,970.583L631.972,834.469L722.666,698.355C728.074,690.239 728.074,679.904 722.666,671.788L663.494,582.982ZM815.807,527.485C854.251,518.487 894.022,512.686 934.784,510.398L934.784,1756.13C894.022,1753.84 854.251,1748.04 815.807,1739.04L887.071,1632.09C892.479,1623.97 892.479,1613.64 887.071,1605.52L788.082,1456.96L887.071,1308.39C892.479,1300.28 892.479,1289.94 887.071,1281.83L788.082,1133.26L887.071,984.699C892.479,976.583 892.479,966.248 887.071,958.133L788.082,809.569L887.071,661.005C892.479,652.889 892.479,642.555 887.071,634.439L815.807,527.485Z" style="fill:rgb(79,128,0);"/>
                    </g>
                </g>
            </g>
        </g>
    </g>
</svg>
